{"title":"Batman Begins (2005) 1080p BluRay {Dual Audio} {6Ch.} [Hindi DD ","uid":9459888,"size":4675473573,"categoryP":"video","categoryS":"hd___movies","magnet":"?xt=urn:btih:01a3a721025f92836aa08ecb532ed9f683b7abee&amp;dn=Batman+Begins+%282005%29+1080p+BluRay+%7BDual+Audio%7D+%7B6Ch.%7D+%5BHindi+DD+&amp;tr=udp%3A%2F%2Ftracker.openbittorrent.com%3A80&amp;tr=udp%3A%2F%2Fopen.demonii.com%3A1337&amp;tr=udp%3A%2F%2Ftracker.coppersurfer.tk%3A6969&amp;tr=udp%3A%2F%2Fexodus.desync.com%3A6969","seeders":6,"leechers":3,"uploader":"SaNRiM","files":-1,"time":1389330640,"description":"Storyline\n\nWhen his parents were killed, millionaire playboy Bruce Wayne relocates to Asia when he is mentored by Henri Ducard and Ra's Al Ghul in how to fight evil. When learning about the plan to wipe out evil in Gotham City by Ducard, Bruce prevents this plan from getting any further and heads back to his home. Back in his original surroundings, Bruce adopts the image of a bat to strike fear into the criminals and the corrupt as the icon known as 'Batman'. But it doesn't stay quiet for long.\n\n\n\nGeneral\n\nUnique ID : 248059976514690434315793943463311873832 (0xBA9E9D19F5AF4AE086110289BBBE9728)\nComplete name : Batman Begins (2005) 1080p BluRay {Dual Audio} {6Ch.} [Hindi DD 5.1 Original-English DD 5.1] ~SaNRiM~.mkv\nFormat : Matroska\nFormat version : Version 4 / Version 2\nFile size : 4.34 GiB\nDuration : 2h 20mn\nOverall bit rate : 4 436 Kbps\nMovie name : Enjoy the best ~SaNRiM~ Find me on facebook\nEncoded date : UTC 2014-01-09 15:14:17\nWriting library : libebml v1.3.0 + libmatroska v1.4.1\n\n\nVideo\n\nID : 1\nFormat : AVC\nFormat/Info : Advanced Video Codec\nFormat profile : &lt;a class=&quot;__cf_email__&quot; href=&quot;/cdn-cgi/l/email-protection&quot; data-cfemail=&quot;8ec6e7e9e6cec2baa0be&quot;&gt;[email&amp;#160;protected]&lt;/a&gt;&lt;script cf-hash='f9e31' type=&quot;text/javascript&quot;&gt;\n/* &lt;![CDATA[ */!function(){try{var t=&quot;currentScript&quot;in document?document.currentScript:function(){for(var t=document.getElementsByTagName(&quot;script&quot;),e=t.length;e--;)if(t[e].getAttribute(&quot;cf-hash&quot;))return t[e]}();if(t&amp;&amp;t.previousSibling){var e,r,n,i,c=t.previousSibling,a=c.getAttribute(&quot;data-cfemail&quot;);if(a){for(e=&quot;&quot;,r=parseInt(a.substr(0,2),16),n=2;a.length-n;n+=2)i=parseInt(a.substr(n,2),16)^r,e+=String.fromCharCode(i);e=document.createTextNode(e),c.parentNode.replaceChild(e,c)}}}catch(u){}}();/* ]]&gt; */&lt;/script&gt;\nFormat settings, CABAC : Yes\nFormat settings, ReFrames : 4 frames\nCodec ID : V_MPEG4/ISO/AVC\nDuration : 2h 20mn\nBit rate : 3 068 Kbps\nWidth : 1 920 pixels\nHeight : 800 pixels\nDisplay aspect ratio : 2.40:1\nFrame rate mode : Constant\nFrame rate : 23.976 fps\nColor space : YUV\nChroma subsampling : 4:2:0\nBit depth : 8 bits\nScan type : Progressive\nBits/(Pixel*Frame) : 0.083\nStream size : 3.00 GiB (69%)\nTitle : ~SaNRiM~\nWriting library : x264 core 130 r2273 b3065e6\nLanguage : English\nDefault : Yes\nForced : No\nColor primaries : BT.709\nTransfer characteristics : BT.709\nMatrix coefficients : BT.709\n\n\nAudio #1\n\nID : 2\nFormat : AC-3\nFormat/Info : Audio Coding 3\nMode extension : CM (complete main)\nFormat settings, Endianness : Big\nCodec ID : A_AC3\nDuration : 2h 20mn\nBit rate mode : Constant\nBit rate : 640 Kbps\nChannel(s) : 6 channels\nChannel positions : Front: L C R, Side: L R, LFE\nSampling rate : 48.0 KHz\nBit depth : 16 bits\nCompression mode : Lossy\nStream size : 641 MiB (14%)\nTitle : ~SaNRiM~\nLanguage : Hindi\nDefault : Yes\nForced : No\n\n\nAudio #2\n\nID : 3\nFormat : AC-3\nFormat/Info : Audio Coding 3\nMode extension : CM (complete main)\nFormat settings, Endianness : Big\nCodec ID : A_AC3\nDuration : 2h 20mn\nBit rate mode : Constant\nBit rate : 640 Kbps\nChannel(s) : 6 channels\nChannel positions : Front: L C R, Side: L R, LFE\nSampling rate : 48.0 KHz\nBit depth : 16 bits\nCompression mode : Lossy\nStream size : 641 MiB (14%)\nTitle : ~SaNRiM~\nLanguage : English\nDefault : No\nForced : No\n\n\n\nScreens\n &lt;a href=&quot;\nhttp://someimage.com/DVPkI1m&quot; rel=&quot;nofollow&quot; target=&quot;_NEW&quot;&gt;\nhttp://someimage.com/DVPkI1m&lt;/a&gt; &lt;a href=&quot;\nhttp://someimage.com/XFKjV1R&quot; rel=&quot;nofollow&quot; target=&quot;_NEW&quot;&gt;\nhttp://someimage.com/XFKjV1R&lt;/a&gt; &lt;a href=&quot;\nhttp://someimage.com/3Lorm5D&quot; rel=&quot;nofollow&quot; target=&quot;_NEW&quot;&gt;\nhttp://someimage.com/3Lorm5D&lt;/a&gt; &lt;a href=&quot;\nhttp://someimage.com/bUuU8eZ&quot; rel=&quot;nofollow&quot; target=&quot;_NEW&quot;&gt;\nhttp://someimage.com/bUuU8eZ&lt;/a&gt; &lt;a href=&quot;\nhttp://someimage.com/Qz0klFu&quot; rel=&quot;nofollow&quot; target=&quot;_NEW&quot;&gt;\nhttp://someimage.com/Qz0klFu&lt;/a&gt; &lt;a href=&quot;\nhttp://someimage.com/TwHG2iP&quot; rel=&quot;nofollow&quot; target=&quot;_NEW&quot;&gt;\nhttp://someimage.com/TwHG2iP&lt;/a&gt; &lt;a href=&quot;\nhttp://someimage.com/O9xHLLY&quot; rel=&quot;nofollow&quot; target=&quot;_NEW&quot;&gt;\nhttp://someimage.com/O9xHLLY&lt;/a&gt; &lt;a href=&quot;\nhttp://someimage.com/YHr0rMK&quot; rel=&quot;nofollow&quot; target=&quot;_NEW&quot;&gt;\nhttp://someimage.com/YHr0rMK&lt;/a&gt; &lt;a href=&quot;\nhttp://someimage.com/qQA7gqh&quot; rel=&quot;nofollow&quot; target=&quot;_NEW&quot;&gt;\nhttp://someimage.com/qQA7gqh&lt;/a&gt; &lt;a href=&quot;\nhttp://someimage.com/rVCaiaG&quot; rel=&quot;nofollow&quot; target=&quot;_NEW&quot;&gt;\nhttp://someimage.com/rVCaiaG&lt;/a&gt; &lt;a href=&quot;\nhttp://someimage.com/aimOiKm&quot; rel=&quot;nofollow&quot; target=&quot;_NEW&quot;&gt;\nhttp://someimage.com/aimOiKm&lt;/a&gt; &lt;a href=&quot;\nhttp://someimage.com/TmbHTsx&quot; rel=&quot;nofollow&quot; target=&quot;_NEW&quot;&gt;\nhttp://someimage.com/TmbHTsx&lt;/a&gt; &lt;a href=&quot;\nhttp://someimage.com/b58rLzp&quot; rel=&quot;nofollow&quot; target=&quot;_NEW&quot;&gt;\nhttp://someimage.com/b58rLzp&lt;/a&gt; &lt;a href=&quot;\nhttp://someimage.com/RPx8BZ9&quot; rel=&quot;nofollow&quot; target=&quot;_NEW&quot;&gt;\nhttp://someimage.com/RPx8BZ9&lt;/a&gt; &lt;a href=&quot;\nhttp://someimage.com/JZFJ8So&quot; rel=&quot;nofollow&quot; target=&quot;_NEW&quot;&gt;\nhttp://someimage.com/JZFJ8So&lt;/a&gt; &lt;a href=&quot;\nhttp://someimage.com/gsAZECx&quot; rel=&quot;nofollow&quot; target=&quot;_NEW&quot;&gt;\nhttp://someimage.com/gsAZECx&lt;/a&gt; &lt;a href=&quot;\nhttp://someimage.com/nUVpQTH&quot; rel=&quot;nofollow&quot; target=&quot;_NEW&quot;&gt;\nhttp://someimage.com/nUVpQTH&lt;/a&gt; &lt;a href=&quot;\nhttp://someimage.com/riW9Yj8&quot; rel=&quot;nofollow&quot; target=&quot;_NEW&quot;&gt;\nhttp://someimage.com/riW9Yj8&lt;/a&gt; &lt;a href=&quot;\nhttp://someimage.com/p97ZYDz&quot; rel=&quot;nofollow&quot; target=&quot;_NEW&quot;&gt;\nhttp://someimage.com/p97ZYDz&lt;/a&gt; &lt;a href=&quot;\nhttp://someimage.com/WlO3EfT&quot; rel=&quot;nofollow&quot; target=&quot;_NEW&quot;&gt;\nhttp://someimage.com/WlO3EfT&lt;/a&gt; &lt;a href=&quot;\nhttp://someimage.com/8Hgms2B&quot; rel=&quot;nofollow&quot; target=&quot;_NEW&quot;&gt;\nhttp://someimage.com/8Hgms2B&lt;/a&gt; &lt;a href=&quot;\nhttp://someimage.com/8M8qUVp&quot; rel=&quot;nofollow&quot; target=&quot;_NEW&quot;&gt;\nhttp://someimage.com/8M8qUVp&lt;/a&gt; &lt;a href=&quot;\nhttp://someimage.com/J4nZ4lP&quot; rel=&quot;nofollow&quot; target=&quot;_NEW&quot;&gt;\nhttp://someimage.com/J4nZ4lP&lt;/a&gt; &lt;a href=&quot;\nhttp://someimage.com/SOeF0Sz&quot; rel=&quot;nofollow&quot; target=&quot;_NEW&quot;&gt;\nhttp://someimage.com/SOeF0Sz&lt;/a&gt; &lt;a href=&quot;\nhttp://someimage.com/uXitvpG&quot; rel=&quot;nofollow&quot; target=&quot;_NEW&quot;&gt;\nhttp://someimage.com/uXitvpG&lt;/a&gt;\n\n\n\n                   If you like my work please comment\n                          Any request? Just PM me\n                       Please seed long after download\n                         Thank you &amp; enjoy the best\n                                 ~SaNRiM~","torrent":{"xt":"urn:btih:01a3a721025f92836aa08ecb532ed9f683b7abee","amp;dn":"Batman+Begins+%282005%29+1080p+BluRay+%7BDual+Audio%7D+%7B6Ch.%7D+%5BHindi+DD+","amp;tr":["udp%3A%2F%2Ftracker.openbittorrent.com%3A80","udp%3A%2F%2Fopen.demonii.com%3A1337","udp%3A%2F%2Ftracker.coppersurfer.tk%3A6969","udp%3A%2F%2Fexodus.desync.com%3A6969"],"infoHash":"01a3a721025f92836aa08ecb532ed9f683b7abee","infoHashBuffer":{"type":"Buffer","data":[1,163,167,33,2,95,146,131,106,160,142,203,83,46,217,246,131,183,171,238]},"announce":[],"urlList":[]}}